<svg width="600" height="600" viewBox="0 0 600 600" fill="none" xmlns="http://www.w3.org/2000/svg">
<path d="M293.84 261.956C295.916 259.315 299.941 256.864 304.622 254.677C310.565 250.926 317.516 247.223 324.236 246.023C327.461 245.448 330.724 244.542 333.85 243.473C342.308 238.574 361.929 225.257 368.5 220C369.596 219.123 371.365 217.866 373.622 216.262C386.807 206.894 416.626 185.705 426 159.5C435.076 134.129 426.131 90.634 426.001 90.0068L425.997 89.9846L425.994 89.9707L418.94 57.0554C418.65 55.6999 418.086 54.4255 417.266 53.3072C412.927 47.3841 398.466 27.9237 395.5 27.5C392.456 27.0651 401.137 42.5162 403.45 46.5484C403.816 47.186 404.112 47.8502 404.326 48.5534C406.367 55.2628 417.161 92.5245 413 117C408.929 140.945 402.732 154.995 387 173.5C376.116 186.302 352 208 353.5 200.5C355 193 355.041 184.06 355 173.5C354.955 161.849 354.053 154.445 352.819 144.327C352.559 142.194 352.285 139.94 352 137.5C351.026 129.145 349.506 119.308 348.615 113.545C348.336 111.74 348.119 110.335 348 109.5C347.957 109.2 347.903 108.8 347.838 108.32C347.149 103.214 345.243 89.0858 342.5 90C339.552 90.9827 342.398 121.419 342.497 122.472L342.5 122.505L342.503 122.537C342.59 123.58 344.454 146.562 342.5 170.5C342.064 175.845 341.857 180.473 341.672 184.605C341.011 199.411 340.634 207.837 331 220C330.787 220.269 330.576 220.536 330.367 220.8C324.33 228.432 320.066 233.824 310.5 236.5C303.731 238.394 291.7 240.5 292.5 236.5C293.308 232.459 287.585 218.622 285.36 213.461C284.799 212.162 284.5 210.768 284.5 209.354V190.949C284.5 189.34 284.117 187.758 283.331 186.354C281.855 183.723 279.201 179.231 276.635 176.128C275.101 174.274 270.888 173.128 271.381 175.483C271.537 176.225 272.281 177.211 274 178.5C278.967 182.225 275.71 201.715 274.441 208.313C274.162 209.765 274.17 211.238 274.503 212.678C275.706 217.879 278.706 230.824 279.5 234C280.5 238 279.5 242.5 275 247.5C271.471 251.421 268.249 249.192 264.853 246.842C263.918 246.195 262.971 245.539 262 245C258.737 243.187 247.323 240.585 241.295 239.292C238.854 238.768 236.687 237.379 235.124 235.431C233.009 232.793 229.755 228.959 226.5 226C223.873 223.612 223.984 223.961 224.598 225.904C225.27 228.029 226.545 232.06 225.5 236.5C221.704 235.656 214.349 219.511 212.142 214.482C211.711 213.503 211.458 212.472 211.373 211.405C210.858 204.946 208.932 180.889 208.5 177C208.33 175.467 208.275 173.529 208.219 171.5C208.109 167.573 207.989 163.308 207 161C205.958 158.567 204.432 161.207 203.598 163.043C203.167 163.994 202.984 165.032 202.952 166.076L201.556 212.156C201.519 213.375 201.701 214.581 202.131 215.722C204.23 221.28 211.359 238.878 220.5 247.5C223.746 250.561 228.108 253.304 232.637 255.648C236.517 254.596 240.671 254.427 244.886 255.551C245.651 255.755 246.442 255.966 247.255 256.183L247.307 256.197C254.483 258.116 263.409 260.502 271.33 262.287C275.751 263.283 279.825 264.084 283.086 264.513C284.718 264.727 286.115 264.844 287.234 264.852C288.396 264.859 289.099 264.745 289.443 264.607C290.376 264.234 291.847 263.31 293.84 261.956Z" fill="#050505"/>
<path d="M294.628 570.757C291.72 572.136 291.806 571.516 292.02 570.646C292.882 570.786 293.757 570.823 294.628 570.757Z" fill="#050505"/>
<path d="M248.405 311.253C250.116 311.044 252.778 310.788 255.076 310.859C256.236 310.894 257.21 311.011 257.898 311.214C258.394 311.361 258.557 311.495 258.595 311.529C258.831 312.267 258.936 313.231 258.944 314.277C258.961 316.567 257.418 318.664 255.087 319.891L253.594 320.676C251.59 321.731 249.219 321.833 247.132 320.954C244.325 319.773 242.5 317.024 242.5 313.978V313.919L245.697 312.156C246.56 311.68 247.472 311.367 248.405 311.253Z" fill="#050505"/>
<path d="M236.12 318.997C237.032 317.974 238.435 316.804 239.668 315.857C239.855 316.892 240.193 317.884 240.665 318.803C238.497 319.377 236.411 320.649 234.626 322.043C234.177 322.394 233.739 322.76 233.313 323.134C234.068 321.67 234.991 320.266 236.12 318.997Z" fill="#050505"/>
<path d="M319.363 442.603C319.363 442.603 319.375 442.605 319.402 442.616L319.389 442.612L319.383 442.61L319.375 442.608C319.368 442.605 319.363 442.603 319.363 442.603Z" fill="#050505"/>
<path fill-rule="evenodd" clip-rule="evenodd" d="M357.462 238.416C354.308 242.471 346.696 249.434 335.386 252.449C329.838 253.929 324.503 258.473 320.022 263.791C315.632 269.003 312.231 274.758 310.425 278.498C310.749 275.799 311.292 272.598 312.162 269.404C313.761 266.94 315.636 264.342 317.728 261.859C322.331 256.394 328.162 251.271 334.613 249.551C345.53 246.64 352.707 239.782 355.315 236.285C355.018 236.537 354.623 236.82 354.19 237.111C353.591 237.513 352.82 237.994 351.906 238.529C350.077 239.599 347.648 240.901 344.828 242.232C339.201 244.887 331.943 247.695 324.764 248.977C318.083 250.17 310.925 254.144 304.692 258.195C302.349 259.718 300.173 261.227 298.215 262.585L298.212 262.587C297.578 263.027 296.967 263.45 296.381 263.853C294.055 265.452 291.997 266.817 290.557 267.393C289.651 267.755 288.463 267.86 287.215 267.852C285.924 267.843 284.391 267.71 282.695 267.487C279.3 267.041 275.124 266.217 270.67 265.213C262.687 263.414 253.7 261.012 246.532 259.096L246.303 259.034C245.915 258.93 245.532 258.828 245.155 258.727C244.802 258.633 244.455 258.541 244.113 258.449C237.171 256.598 230.255 258.77 224.629 262.84C218.983 266.925 214.842 272.778 213.447 277.895C211.844 283.772 207.615 289.128 202.989 294.255C201.647 295.741 200.274 297.208 198.904 298.67C195.456 302.351 192.032 306.007 189.213 309.882C187.527 312.201 187.386 314.477 187.685 317.045C187.78 317.864 187.908 318.633 188.043 319.443C188.133 319.987 188.226 320.55 188.315 321.158C188.525 322.597 188.68 324.138 188.558 325.739C188.433 327.383 188.021 329.032 187.158 330.69C189.385 330.703 192.429 330.221 196.1 329.229C200.873 327.94 206.501 325.848 212.371 323.138C215.292 321.79 216.896 320.353 218.051 319.316L218.24 319.148C218.732 318.707 219.348 318.155 220.028 317.866C216.817 322.185 211.57 325.676 205.983 328.454C203.705 329.586 201.444 330.569 199.312 331.424C198.483 331.678 197.672 331.912 196.882 332.126C192.237 333.38 188.116 333.977 185.193 333.553C184.571 334.277 183.845 335.002 183.004 335.729C179.179 339.034 172.943 342.39 163.001 345.914C154.806 348.818 148.772 352.057 144.383 355.341L144.563 355.582L144.628 355.668C145.131 356.336 145.672 357.009 146.473 357.62C148.024 358.804 150.864 359.986 156.88 359.505C158.923 359.341 160.601 359.67 161.756 360.654C162.958 361.678 163.255 363.116 163.164 364.384C163.075 365.636 162.607 366.9 162.041 367.955C161.481 368.995 160.754 369.964 160.004 370.615C158.514 372.014 155.985 374.049 153.14 375.698C150.335 377.323 146.958 378.732 143.885 378.496C143.748 378.485 143.623 378.478 143.508 378.474L143.638 378.652C144.365 379.647 145.176 380.758 145.788 381.905C146.571 383.372 147.133 385.076 146.869 387.008C146.776 387.689 146.637 388.387 146.426 389.019C147.835 389.043 149.385 389.089 151.033 389.137L151.036 389.137L151.04 389.137H151.041C155.351 389.264 160.328 389.411 165.201 389.251C168.976 389.127 172.564 388.819 175.55 388.189C178.407 387.585 180.497 386.73 181.718 385.647L181.869 385.437C182.641 384.363 183.249 383.508 183.642 382.797C183.992 382.165 184.027 381.893 184.034 381.84C184.035 381.832 184.036 381.83 184.036 381.83L184.037 381.832L184.038 381.837L186.962 381.163C187.224 382.301 186.722 383.427 186.267 384.25C185.77 385.148 185.046 386.157 184.305 387.188L184.047 387.547L184.061 387.561C184.035 387.587 184.008 387.612 183.982 387.638C183.608 388.16 183.223 388.7 182.841 389.259C182.076 390.106 181.039 391.108 179.844 391.964C178.956 392.602 178.039 393.117 177.125 393.45L177.107 393.443C177.515 392.424 177.995 391.452 178.508 390.534C177.755 390.76 176.971 390.955 176.169 391.124C172.936 391.806 169.149 392.123 165.299 392.249C160.37 392.411 155.128 392.259 150.737 392.132L150.716 392.131L150.67 392.13L150.666 392.129L150.664 392.129H150.662C149.531 392.097 148.457 392.066 147.46 392.042C155.944 402.771 167.666 403.468 175.279 401.858C178.364 401.205 181.735 402.158 183.999 404.379C184.808 405.012 186.423 405.612 188.798 406.087C191.152 406.557 194.017 406.861 197.051 407.04C203.115 407.398 209.703 407.25 213.912 407.003L214.035 406.995L214.158 407.008C218.115 407.427 223.327 407.544 228.856 407.007C235.764 406.336 243.059 404.653 249.005 401.351C254.792 398.137 259.247 393.428 260.931 386.616C260.807 387.773 260.614 389.119 260.36 390.551C259.989 392.649 259.497 394.891 258.92 396.966L259 396.964L259.005 397.202C259.176 404.318 259.534 419.285 251.842 434.671C249.926 438.502 248.463 440.957 247.315 442.52C246.204 444.031 245.239 444.918 244.249 445.248C243.806 445.396 243.368 445.403 243.02 445.364C243.098 445.243 243.176 445.12 243.255 444.995C243.28 444.977 243.303 444.959 243.324 444.942L243.295 444.932C243.62 444.412 243.956 443.851 244.302 443.244C245.922 440.41 246.876 438.425 247.408 437.075C247.573 436.655 247.703 436.284 247.8 435.957C248.221 435.173 248.673 434.301 249.158 433.329C255.616 420.414 256.142 407.781 256.06 400.117C253.821 402.1 251.299 403.715 248.696 405.017C241.771 408.48 234.102 409.818 229.099 409.997C223.937 410.496 219.036 410.447 215.085 410.11C214.95 411.04 214.841 412.785 214.998 415.925C215.477 425.509 221.269 436.196 225.807 444.265C228.276 448.654 228.502 454.563 228.625 460.657L228.65 461.994L228.65 461.995C228.76 467.849 228.876 474.045 230.452 480.124C231.919 485.781 234.936 490.227 238.448 495.403C238.934 496.121 239.431 496.852 239.934 497.602C244.037 503.726 248.399 510.9 250.959 521.653C252.609 528.581 258.495 536.888 265.91 544.969C273.273 552.993 281.946 560.587 288.872 566.079C291.632 568.268 295.496 568.356 298.433 566.336C307.808 559.89 319.895 551.215 330.033 543.127C335.104 539.081 339.666 535.2 343.15 531.83C344.892 530.145 346.347 528.605 347.457 527.249C348.582 525.874 349.283 524.77 349.603 523.953C351.949 517.958 358.094 509.294 365.212 500.553C372.372 491.76 380.656 482.722 387.439 475.939C393.965 469.414 401.623 455.403 407.299 441.496C410.123 434.575 412.424 427.756 413.832 422.01C414.536 419.137 415.01 416.557 415.219 414.383C415.43 412.182 415.357 410.511 415.053 409.395C414.511 407.408 413.165 405.076 411.252 402.451C409.355 399.845 406.999 397.08 404.545 394.216L404.264 393.888C401.914 391.145 399.494 388.321 397.403 385.544C395.236 382.665 393.355 379.752 392.261 376.94C391.742 375.605 391.9 374.313 392.476 373.197C393.025 372.133 393.932 371.261 394.901 370.567C396.838 369.18 399.417 368.226 401.445 367.808C402.924 367.503 403.51 366.986 403.722 366.643C403.907 366.341 403.98 365.882 403.675 365.176C403.026 363.675 400.915 361.804 397.879 360.915C382.774 356.492 364.179 347.81 355.212 332.768C345.874 317.105 336.972 309.36 331.535 306.178C330.235 305.417 328.766 304.496 327.562 303.337C326.345 302.166 325.314 300.67 325.043 298.754C324.911 297.82 324.891 296.764 325.221 295.813C325.581 294.777 326.349 293.912 327.588 293.558C330.8 292.64 341.904 288.354 349.667 273.312C357.493 258.15 357.5 242.459 357.5 239C357.5 238.796 357.487 238.601 357.462 238.416ZM240.215 311.753L240.158 311.791L240.157 311.792L240.154 311.794L240.144 311.801L240.107 311.826C240.075 311.848 240.029 311.88 239.97 311.92C239.853 312.002 239.684 312.12 239.477 312.268C239.061 312.564 238.486 312.983 237.845 313.475C236.584 314.443 234.99 315.755 233.88 317.003C228.973 322.514 227.555 330.051 227.1 334.762C227.951 334.223 229.186 332.976 230.689 330.272L230.81 330.339L230.838 330.212C232.115 328.489 234.162 326.213 236.474 324.407C238.627 322.724 240.78 321.629 242.639 321.496C243.579 322.425 244.702 323.186 245.968 323.719C248.882 324.946 252.193 324.804 254.991 323.331L256.484 322.545C259.485 320.966 261.972 317.989 261.944 314.254C261.935 313.045 261.815 311.701 261.423 310.526C260.983 309.205 259.706 308.62 258.748 308.337C257.697 308.027 256.424 307.899 255.168 307.86C252.636 307.783 249.793 308.061 248.041 308.275C246.683 308.441 245.406 308.89 244.249 309.529L240.215 311.753ZM263.967 386.814C263.941 386.932 263.915 387.049 263.889 387.165L263.906 387.012C263.913 386.943 263.921 386.874 263.928 386.806L263.967 386.814ZM331.439 319.061L331.476 319.024L331.526 319.148L331.474 319.096L331.439 319.061ZM338.067 329.941C340.621 336.671 341.87 345.707 338.571 356.044C336.028 364.013 338.525 371.927 341.878 378.216C344.56 383.247 347.921 387.463 349.924 389.975L349.947 390.004C349.843 390.001 349.74 390 349.639 390H346.285C345.841 390 345.397 389.965 344.959 389.896L338.621 388.895C338.248 388.836 337.86 388.775 337.529 388.743C337.259 388.716 336.743 388.671 336.267 388.826L336.237 388.836C336.225 388.84 336.214 388.844 336.202 388.848C336.882 390.165 337.585 391.793 338.068 393.489C338.371 394.553 338.609 395.72 338.672 396.893C339.355 398.517 339.883 400.428 340.002 402.583C340.047 403.385 339.898 404.599 339.528 406.192C339.165 407.758 338.611 409.596 337.91 411.607C336.509 415.626 334.547 420.256 332.431 424.646C330.313 429.041 328.063 433.153 326.094 436.147C325.105 437.649 324.217 438.824 323.479 439.606C323.109 439.999 322.813 440.252 322.594 440.398C322.509 440.455 322.452 440.485 322.421 440.499C321.915 440.485 321.606 440.336 321.171 440.127C321.01 440.049 320.83 439.963 320.618 439.872C320.336 439.752 319.425 439.369 318.529 439.952C318.134 440.209 317.896 440.563 317.749 440.856C317.6 441.151 317.494 441.48 317.41 441.812C316.53 445.29 315.461 448.744 314.193 451.766C312.918 454.806 311.482 457.31 309.911 458.968C307.898 461.093 306.847 464.171 306.259 467.372C305.665 470.605 305.506 474.188 305.442 477.505C305.423 478.488 305.413 479.442 305.402 480.358C305.377 482.59 305.355 484.598 305.222 486.265C305.132 487.392 304.998 488.258 304.815 488.865C303.99 488.202 302.888 488.132 302.111 488.274C301.07 488.464 299.75 489.167 299.337 490.573C298.571 493.176 297.133 496.709 294.678 501.292C293.078 504.277 291.804 508.465 290.776 513.187C289.744 517.935 288.94 523.326 288.322 528.781C287.086 539.691 286.584 550.942 286.5 557.982L286.515 557.982C287.794 553.349 289.35 546.179 290.149 542.182C290.427 537.973 290.805 533.516 291.303 529.119C291.914 523.724 292.704 518.44 293.708 513.825C294.717 509.185 295.922 505.323 297.322 502.708C299.838 498.012 301.369 494.29 302.21 491.436C302.217 491.427 302.236 491.406 302.274 491.378C302.359 491.315 302.493 491.253 302.65 491.225C302.771 491.203 302.862 491.208 302.916 491.217C303.121 491.567 303.432 491.918 303.852 492.16C304.337 492.439 305.036 492.596 305.758 492.279C306.849 491.799 307.37 490.729 307.651 489.847C307.951 488.904 308.114 487.742 308.212 486.503C308.354 484.727 308.378 482.557 308.404 480.276V480.275L308.404 480.273C308.414 479.38 308.424 478.472 308.442 477.563C308.505 474.268 308.662 470.892 309.209 467.915C309.762 464.906 310.676 462.523 312.089 461.032C314.02 458.993 315.624 456.11 316.96 452.926C318.247 449.856 319.322 446.415 320.204 442.995C320.765 443.235 321.572 443.5 322.5 443.5C323.2 443.5 323.809 443.194 324.26 442.893C324.736 442.576 325.206 442.147 325.66 441.666C326.572 440.7 327.57 439.361 328.6 437.795C330.667 434.653 332.982 430.413 335.134 425.949C337.287 421.48 339.296 416.743 340.743 412.594C341.466 410.52 342.055 408.574 342.451 406.87C342.84 405.191 343.066 403.647 342.998 402.417C342.75 397.96 341.034 394.426 339.464 392.066L344.491 392.859C345.084 392.953 345.684 393 346.285 393H349.639C349.788 393 349.938 393.004 350.096 393.009C350.211 393.013 350.331 393.018 350.456 393.023L350.459 393.023C350.566 393.028 350.676 393.032 350.791 393.036C351.182 393.051 351.659 393.063 352.079 393.018C352.29 392.995 352.562 392.95 352.834 392.846C353.097 392.746 353.512 392.532 353.796 392.076C354.111 391.572 354.108 391.035 353.998 390.627C353.9 390.258 353.708 389.951 353.537 389.722C353.183 389.248 352.721 388.668 352.182 387.991C350.16 385.451 347.056 381.553 344.525 376.805C341.325 370.802 339.248 363.79 341.429 356.956C347.431 338.148 339.427 323.255 334.097 317.497C334.704 319.009 335.463 320.954 336.169 323.014C336.929 325.23 337.643 327.623 338.038 329.777C338.048 329.831 338.058 329.886 338.067 329.941Z" fill="#050505"/>
<path d="M143.489 388.313L143.499 388.288L143.506 388.27C143.667 387.868 143.801 387.298 143.897 386.601C144.045 385.52 143.756 384.469 143.141 383.317C142.639 382.375 141.99 381.485 141.277 380.507C141.085 380.244 140.889 379.974 140.689 379.695C140.432 379.337 140.162 378.878 140.043 378.36C139.913 377.795 139.949 377.059 140.476 376.434C140.942 375.881 141.597 375.658 142.136 375.559C142.702 375.455 143.368 375.447 144.115 375.504C146.241 375.668 148.948 374.66 151.635 373.102C154.267 371.577 156.626 369.675 157.972 368.408L157.997 368.384L158.024 368.361C158.431 368.012 158.957 367.356 159.398 366.534C159.431 366.473 159.463 366.412 159.494 366.351C159.47 366.098 159.389 365.996 159.337 365.944C159.246 365.854 159.031 365.715 158.571 365.643C157.621 365.493 156.143 365.713 154.482 366.36C152.853 366.995 151.228 367.971 150.006 369.124C149.593 369.514 149.241 369.909 148.953 370.303C147.461 371.477 146.136 372.01 145.023 372.183C145.248 370.126 146.47 368.336 147.947 366.942C149.49 365.486 151.459 364.318 153.393 363.565C155.295 362.824 157.348 362.413 159.038 362.679C159.227 362.709 159.418 362.748 159.607 362.799C159.23 362.589 158.494 362.385 157.12 362.495C150.636 363.014 146.976 361.779 144.652 360.005C143.515 359.137 142.775 358.195 142.231 357.472L142.121 357.326L142.046 357.225C140.046 358.965 138.48 360.703 137.271 362.394C133.357 367.867 133.117 372.934 134.075 376.351C134.214 376.849 134.337 377.324 134.456 377.781C134.733 378.852 134.986 379.829 135.372 380.79C136.069 382.528 137.677 384.264 139.632 385.79C140.92 386.796 142.288 387.656 143.489 388.313Z" fill="#050505"/>
</svg>
